<svg width="18" height="8" viewBox="0 0 18 8" fill="none" xmlns="http://www.w3.org/2000/svg">
<path d="M16.188 4.001C16.188 5.101 15.297 6.016 14.2 6.016L10.005 6.001C10.543 7.089 10.968 8 12.002 8H15.002C16.658 8 18 5.657 18 4C18 2.343 16.658 0 15.002 0H12.002C10.968 0 10.543 0.911 10.004 1.999L14.199 1.984C15.297 1.984 16.188 2.901 16.188 4.001Z" fill="#212121"/>
<path d="M5 4C5 4.535 5.42 5 5.938 5H12.047C12.565 5 12.985 4.535 12.985 4C12.985 3.466 12.565 3 12.047 3H5.938C5.42 3 5 3.466 5 4Z" fill="#212121"/>
<path d="M1.816 3.999C1.816 2.899 2.707 1.984 3.804 1.984L8 1.999C7.461 0.911 7.036 0 6.002 0H3.002C1.346 0 0.0039978 2.343 0.0039978 4C0.0039978 5.657 1.346 8 3.002 8H6.002C7.036 8 7.461 7.089 8 6.001L3.805 6.016C2.707 6.016 1.816 5.099 1.816 3.999Z" fill="#212121"/>
</svg>
